<svg width="45" height="45" viewBox="0 0 45 45" fill="none" xmlns="http://www.w3.org/2000/svg">
<path fill-rule="evenodd" clip-rule="evenodd" d="M39.5021 0C42.5365 0 45 2.46357 45 5.49791V39.5021C45 42.5364 42.5364 45 39.5021 45H5.49791C2.46357 45 0 42.5364 0 39.5021V5.49791C0 2.46357 2.46349 0 5.49791 0L39.5021 0ZM14.103 37.2022V17.3638H7.5077V37.2022H14.103ZM37.8809 37.2022V25.8257C37.8809 19.732 34.6273 16.8972 30.2888 16.8972C26.7904 16.8972 25.2233 18.8212 24.3459 20.1726V17.3638H17.7522C17.8397 19.2254 17.7522 37.2022 17.7522 37.2022H24.3458V26.123C24.3458 25.5299 24.3885 24.9372 24.5632 24.5133C25.0391 23.329 26.1248 22.1021 27.9465 22.1021C30.3314 22.1021 31.287 23.9221 31.287 26.5878V37.2022H37.8809ZM10.8499 7.79783C8.59342 7.79783 7.11914 9.28134 7.11914 11.2257C7.11914 13.1293 8.54859 14.6537 10.7626 14.6537H10.8052C13.1048 14.6537 14.5363 13.1293 14.5363 11.2257C14.4937 9.28406 13.1089 7.80205 10.8499 7.79783Z" fill="#969696"/>
</svg>
