<svg width="45" height="45" viewBox="0 0 45 45" fill="none" xmlns="http://www.w3.org/2000/svg">
<g clip-path="url(#clip0_249_17)">
<path d="M24.9132 22.4775C24.9132 28.8764 19.7611 34.0637 13.406 34.0637C7.05083 34.0637 1.89832 28.8764 1.89832 22.4775C1.89832 16.0785 7.05044 10.8908 13.406 10.8908C19.7615 10.8908 24.9132 16.0785 24.9132 22.4775Z" fill="#969696"/>
<path d="M37.5371 22.4775C37.5371 28.5007 34.961 33.3854 31.7832 33.3854C28.6055 33.3854 26.0294 28.5007 26.0294 22.4775C26.0294 16.4543 28.6051 11.5695 31.7829 11.5695C34.9606 11.5695 37.5367 16.4527 37.5367 22.4775" fill="#969696"/>
<path d="M42.7006 22.4775C42.7006 27.8728 41.7947 32.2492 40.6769 32.2492C39.5592 32.2492 38.6537 27.874 38.6537 22.4775C38.6537 17.081 39.5596 12.7057 40.6769 12.7057C41.7943 12.7057 42.7006 17.0806 42.7006 22.4775Z" fill="#969696"/>
</g>
<defs>
<clipPath id="clip0_249_17">
<rect width="45" height="45" fill="white"/>
</clipPath>
</defs>
</svg>
