<svg width="56" height="56" viewBox="0 0 56 56" fill="none" xmlns="http://www.w3.org/2000/svg">
<path d="M22.5 2C11.225 2 2 11.225 2 22.5C2 33.775 11.1804 43 22.5 43C33.8196 43 43 33.8196 43 22.5C43 11.1804 33.8196 2 22.5 2ZM32.1261 32.0815C32.1261 32.0815 32.1261 32.1261 32.0815 32.1261C31.725 32.6609 31.1902 32.9283 30.6554 32.9283C30.3435 32.9283 30.0315 32.8391 29.7641 32.6609C25.2185 29.8533 19.3804 29.2293 12.4728 30.8337C11.537 31.1011 10.6902 30.4326 10.4674 29.6304C10.2 28.6054 10.8685 27.8033 11.6707 27.5804C19.5587 25.7978 26.1989 26.5554 31.4576 29.8087C31.8587 29.987 32.1261 30.2544 32.2598 30.6554C32.3935 31.1011 32.3489 31.6359 32.1261 32.0815ZM34.488 26.6446C34.1315 27.1348 33.6413 27.4913 33.062 27.5804C32.9728 27.5804 32.8391 27.625 32.75 27.625C32.3935 27.625 32.037 27.4913 31.725 27.313C26.3772 24.0598 18.3109 23.1239 12.1609 25.0848C11.0467 25.3522 9.93261 24.7728 9.66522 23.7478C9.39783 22.6337 9.97717 21.5641 11.0022 21.2967C18.3554 19.0685 27.5804 20.1826 33.9087 24.0598C34.2652 24.238 34.5772 24.6391 34.7109 25.1739C34.9337 25.6196 34.8 26.1989 34.488 26.6446ZM37.2957 20.5391C36.85 21.163 36.0924 21.475 35.3348 21.475C34.9337 21.475 34.488 21.3859 34.1315 21.163C27.937 17.4641 17.2859 17.0185 11.225 18.8902C10.0217 19.2467 8.77391 18.5783 8.37283 17.4196C8.0163 16.2163 8.68478 14.9239 9.84348 14.5674C17.063 12.4283 29.0065 12.8739 36.4935 17.3304C37.563 17.8652 37.9641 19.3359 37.2957 20.5391C37.3402 20.4946 37.3402 20.4946 37.2957 20.5391Z" fill="black"/>
</svg>
